<?xml version="1.0" encoding="utf-8"?>
<!-- Generator: Adobe Illustrator 21.1.0, SVG Export Plug-In . SVG Version: 6.00 Build 0)  -->
<svg version="1.1" id="Layer_1" xmlns="http://www.w3.org/2000/svg" xmlns:xlink="http://www.w3.org/1999/xlink" x="0px" y="0px"
	 viewBox="0 0 490 361" style="enable-background:new 0 0 490 361;" xml:space="preserve">
<style type="text/css">
	.st0{stroke:#FFFFFF;stroke-miterlimit:10;}
</style>
<path class="st0" d="M471.5,67.5H18c-9.9,0-18-8.1-18-18v-31c0-9.9,8.1-18,18-18h453.5c9.9,0,18,8.1,18,18v31
	C489.5,59.4,481.4,67.5,471.5,67.5z"/>
<path class="st0" d="M471.5,214.5H18c-9.9,0-18-8.1-18-18v-31c0-9.9,8.1-18,18-18h453.5c9.9,0,18,8.1,18,18v31
	C489.5,206.4,481.4,214.5,471.5,214.5z"/>
<path class="st0" d="M471.5,360.5H18c-9.9,0-18-8.1-18-18v-31c0-9.9,8.1-18,18-18h453.5c9.9,0,18,8.1,18,18v31
	C489.5,352.4,481.4,360.5,471.5,360.5z"/>
</svg>
