<?xml version="1.0" encoding="utf-8"?>
<!-- Generator: Adobe Illustrator 21.1.0, SVG Export Plug-In . SVG Version: 6.00 Build 0)  -->
<svg version="1.1" id="Layer_1" xmlns="http://www.w3.org/2000/svg" xmlns:xlink="http://www.w3.org/1999/xlink" x="0px" y="0px"
	 viewBox="0 0 447.4 549.9" style="enable-background:new 0 0 447.4 549.9;" xml:space="preserve">
<style type="text/css">
	.st0{fill:#FFFFFF;}
</style>
<g>
	<path d="M0,496.6C0,348.9,0,201.1,0,53.4c0.2-1.6,0.5-3.2,0.7-4.7c3.1-22.7,20.9-42,43.3-47c3.1-0.7,6.2-1.1,9.3-1.6
		c86.1,0,172.1,0,258.2,0c0.6,0.1,1.2,0.3,1.8,0.4c14.2,1.1,26.6,6.5,36.7,16.3c27.4,26.5,54.5,53.3,81.7,80
		c5.8,5.7,10.4,12.3,13.2,20.1c2.2,6.2,2.4,12.6,2.4,19.1c0,118.7-0.1,237.4,0,356.1c0,14.7-4.4,27.8-14.3,38.8
		c-11.1,12.4-25,19-41.7,19.1c-112.2,0-224.5,0-336.7,0c-2,0-4.1-0.1-6.1-0.4c-22.8-3.3-42-21-46.9-43.5
		C0.9,502.9,0.5,499.8,0,496.6z M18.6,275c0,72.6,0,145.3,0,217.9c0,10.8,3.6,20.2,11.4,27.8c7.8,7.7,17.4,11,28.2,11
		c110.3,0,220.6,0,331,0c0.5,0,1,0,1.5,0c11.4-0.3,21.1-4.3,28.7-12.9c6.8-7.7,9.5-16.7,9.5-26.9c-0.1-119.2,0-238.4,0-357.6
		c0-8.3-2.2-15.7-7.9-21.8c-1.1-1.1-2.1-2.3-3.2-3.4c-26.3-25.8-52.6-51.5-78.8-77.4c-8.9-8.7-19.4-13-31.7-13
		c-83.6,0-167.3,0-250.9,0.1c-3.7,0-7.6,0.7-11.2,1.7c-16.2,4.9-26.6,19.4-26.6,36.7C18.6,129.7,18.6,202.3,18.6,275z"/>
	<path class="st0" d="M53.4,0c-3.1,0.5-6.2,0.9-9.3,1.6c-22.5,5-40.2,24.3-43.3,47c-0.2,1.6-0.5,3.2-0.7,4.7C0,35.6,0,17.8,0,0
		C17.8,0,35.6,0,53.4,0z"/>
	<path d="M315.9,277.7c-14.2-0.3-27.2-4.7-39.5-11.5c-7.4-4.1-14.2-9.1-20.4-15c-0.9-0.9-1.8-1-3-0.8c-20.1,4-39.9,9.1-59.2,16.1
		c-1,0.4-2.1,1.2-2.7,2.1c-6.9,10.2-13.6,20.5-20.7,30.6c-6.3,8.8-13.4,17-22,23.7c-7.4,5.8-15.6,9.4-25.2,9.2
		c-8.2-0.2-14.6-5.4-15.9-12.8c-0.5-3,0.2-5.8,1.5-8.5c2.7-5.7,7.1-10,11.9-13.9c9.6-7.8,20.4-13.7,31.4-19.2
		c6.9-3.4,13.8-6.8,20.7-10.3c0.9-0.4,1.7-1.3,2.1-2.1c12-25.5,22.9-51.4,32.5-77.8c0.3-0.9,0.3-2.2,0-3.2c-2.6-8.4-5.7-16.6-7.9-25
		c-2.9-11.2-4-22.8-3.2-34.4c0.2-2.6,0.5-5.2,1.2-7.7c2.5-9,11.5-13.3,20.4-9.8c7.1,2.9,11,8.5,12.9,15.6c2.3,8.2,2.1,16.6,1.4,25
		c-1.5,15.8-6.2,30.9-9.9,46.2c-0.2,0.9-0.1,2.2,0.4,3.1c7.5,13.7,17.3,25.7,27.1,37.9c1.9,2.4,3.9,4.8,5.8,7.3
		c0.7,0.9,1.3,1.2,2.5,1.1c9.2-1.2,18.5-2.4,27.8-3.2c12-1.1,24.1-1.1,35.9,2c4.5,1.2,8.8,3.1,12.4,6.2c4.8,4.2,6.7,9.5,6,15.7
		c-0.5,4.5-3.3,7.7-7.1,9.9C328.6,276.5,323,277.7,315.9,277.7z M196.2,259.3c17.9-6.3,35.9-10.8,54.8-14.3
		c-12.1-13.7-22.9-27.6-32.5-42.8C212.2,221.9,204.4,240.4,196.2,259.3z M261.4,248.5c0.1,0.4,0.1,0.5,0.2,0.6
		c0.4,0.3,0.9,0.7,1.3,1c10.9,8,23.1,13.3,35.8,17.6c4.4,1.5,8.9,2.8,13.6,2.6c5.6-0.2,10.4-4.2,11.3-9.5c0.8-4.6-1.8-9.3-6.6-11.9
		c-5.7-3-11.9-3.3-18.1-3.6c-9.4-0.4-18.6,0.8-27.8,1.9C267.9,247.6,264.7,248,261.4,248.5z M167.6,276.6c-0.1-0.1-0.2-0.2-0.3-0.3
		c-5.8,2.9-11.5,5.8-17.3,8.7c-10,5.1-20,10.4-28.4,17.9c-2.8,2.5-5.3,5.6-7.6,8.6c-1.5,2-2.2,4.5-1.5,7.1c1.3,5.2,6.1,7.6,11.5,5.7
		c5.8-2,10.7-5.5,14.9-9.9c11-11.2,20.1-23.8,28.3-37.1C167.4,277.2,167.5,276.9,167.6,276.6z M210.8,176.3c0.2-0.5,0.4-0.8,0.5-1
		c4.6-14.9,8.3-29.9,9.1-45.5c0.2-3.5-0.3-7.2-1-10.7c-0.8-3.8-3.8-5.8-7.5-6.3c-3.6-0.5-5.8,1.8-7.4,4.7c-0.6,1-1,2-1.3,3.1
		c-1.4,4.3-1.8,8.8-1.6,13.3c0.8,14.3,4,28.1,8.8,41.6C210.4,175.6,210.6,175.8,210.8,176.3z"/>
	<path d="M196.3,470.9c0-27.8,0-55.6,0-83.5c0.2-0.1,0.3-0.2,0.4-0.2c8.8,0.1,17.5-0.2,26.2,0.5c14.7,1.2,24.1,9.5,28.3,23.5
		c4.3,14.5,3.6,28.8-3.1,42.4c-5.2,10.5-13.9,16.6-25.8,17.2C213.7,471.3,205.1,470.9,196.3,470.9z M210.1,398.3
		c0,20.7,0,41.2,0,61.9c2.3,0,4.6,0,6.8,0c9.6-0.2,16-4.6,19.2-13.7c4-11.1,3.8-22.3,0.6-33.5c-1.6-5.4-4.8-9.8-10-12.4
		C221.5,397.9,215.9,398.1,210.1,398.3z"/>
	<path d="M147.4,438.4c0,11.1,0,21.9,0,32.8c-4.6,0-9.1,0-13.7,0c0-27.9,0-55.9,0-83.8c0.2-0.1,0.5-0.2,0.7-0.2
		c9.7,0.2,19.4-0.2,29.1,0.6c13.5,1.1,21.3,9.8,21.8,23.4c0.1,3.2-0.2,6.6-1,9.8c-2.4,9.7-9,15.5-18.9,16.7
		c-4.1,0.5-8.3,0.6-12.5,0.8C151.2,438.5,149.5,438.4,147.4,438.4z M147.6,427.6c5-0.4,9.9-0.5,14.7-1.3c4.1-0.6,6.7-3.5,7.7-7.5
		c1.1-4,1.1-8,0.1-12c-1.5-5.5-5-8.5-10.6-8.8c-3.3-0.2-6.7-0.1-10.1-0.3c-1.5-0.1-2,0.4-2,2c0.1,8.6,0,17.2,0,25.7
		C147.5,426,147.5,426.6,147.6,427.6z"/>
	<path d="M313.8,387.3c0,3.6,0,7.1,0,10.9c-0.7,0-1.4,0-2.2,0c-9.6,0-19.1,0-28.7,0c-1,0-1.9-0.1-1.9,1.5c0.1,7.6,0,15.2,0,22.7
		c0,0.3,0.1,0.6,0.1,1.1c8.7,0,17.3,0,26.2,0c0,3.6,0,7-0.1,10.4c0,0.3-1.1,0.8-1.7,0.8c-7.3,0.1-14.7,0-22,0c-0.7,0-1.5,0-2.4,0
		c0,12.2,0,24.3,0,36.5c-4.7,0-9.2,0-13.8,0c0-27.9,0-55.8,0-83.8C282.7,387.3,298.1,387.3,313.8,387.3z"/>
</g>
</svg>
